<svg width="3149" height="1280" viewBox="0 0 3149 1280" fill="none" xmlns="http://www.w3.org/2000/svg">
<path d="M428.693 255.514C434.649 255.17 441.106 255.883 447.302 255.696C511.663 253.747 573.709 263.876 632.678 290.659C719.513 329.999 787.336 401.99 821.433 491.015C852.041 573.292 850.144 691.906 812.224 771.256C769.732 860.172 697.912 931.26 605.247 965.725C591.654 969.684 577.283 975.665 563.289 978.233C503.104 989.276 440.607 985.407 379.658 986.38C352.745 986.529 325.546 986.543 298.678 986.377C210.067 985.832 214.476 916.929 214.889 849.819L215.631 760.736L215.627 558.26C215.649 494.995 215.916 431.566 214.767 367.997C213.825 315.946 217.612 271.927 278.71 259.281C290.242 256.894 300.868 256.536 312.621 256.548C351.326 256.943 390.013 255.829 428.693 255.514ZM368.414 410.872L367.95 686.415C367.951 734.538 367.163 785.382 368.412 833.317C387.015 838.174 404.834 835.159 423.479 835.849C497.197 838.578 551.829 831.729 611.656 784.797C662.461 740.21 677.581 693.628 681.997 626.716C685.476 573.999 670.591 520.116 636.412 479.372C593.477 428.19 539.599 412.71 475.064 408.959C465.509 408.404 390.067 408.073 383.818 409.574C378.691 410.096 373.556 410.528 368.414 410.872Z" fill="#02135D"/>
<path d="M2660.61 483.406C2663.64 482.445 2675.19 482.182 2678.72 482.311C2697.8 482.977 2718.42 492.842 2731.48 506.788C2753.43 530.223 2749.75 572.02 2749.71 601.696L2749.64 684.825V839.669C2749.65 868.117 2749.57 896.546 2749.44 924.994C2749.11 997.789 2722.27 1076.33 2668.36 1127.03C2618.23 1175.08 2550.68 1200.63 2481.3 1197.78C2426.3 1196.03 2373.55 1177.69 2334.54 1137.44C2321.06 1123.53 2306.06 1099.45 2307.39 1079.88C2308.34 1065.76 2314.5 1048.39 2325.64 1039.03C2371.96 1000.07 2408.95 1034.69 2449.17 1050.97C2463.29 1056.54 2478.22 1059.79 2493.37 1060.62C2551.4 1063.37 2591.13 1011.38 2593.12 957.029C2579.36 962.465 2565.83 970.375 2551.21 973.851C2537.44 976.224 2527.38 979.518 2512.18 980.931C2450.84 986.831 2389.69 967.872 2342.44 928.302C2303.98 896.254 2273.47 839.319 2263.86 790.671C2255.73 749.464 2258.9 699.627 2258.6 657.469C2259.82 620.729 2255.46 581.346 2262.07 545.037C2272.15 489.663 2343.78 465.12 2386.15 502.82C2415.52 528.961 2409.1 567.71 2408.87 602.521C2408.69 628.302 2408.73 653.718 2408.7 679.467C2409.84 724.416 2403.05 783.579 2442.18 815.244C2475.74 842.398 2527.94 841.073 2560.33 812.22C2599.04 777.737 2592.94 732.915 2592.83 686.114L2592.74 594.009C2592.74 564.181 2589.58 534.933 2610.2 510.439C2622.16 496.237 2642.1 484.962 2660.61 483.406Z" fill="#02135D"/>
<path d="M1715.85 481.4C1774.72 478.336 1831.43 490.518 1880.1 524.926C1921.31 554.059 1956.88 599.557 1965.75 650.198C1969.03 668.92 1969.79 686.674 1958.49 703.178C1951.61 713.218 1932.63 725.827 1921.4 731.12C1888.39 746.681 1851.79 760.456 1817.64 773.233C1777.24 788.75 1736.96 804.567 1696.8 820.682C1688.04 824.298 1678.21 828.005 1669.9 832.6C1666.03 834.74 1665.44 836.619 1666.28 840.471C1670.66 846.263 1686.63 852.857 1693.56 854.641C1732.52 864.665 1769.97 864.436 1804.99 842.475C1817.29 834.101 1828.32 826.675 1840.97 818.615C1875.04 796.908 1927.39 800.689 1948.86 837.932C1955.47 849.412 1958 863.91 1954.13 877.217C1950.99 888.916 1944.44 899.398 1937 908.825C1900.61 954.881 1834.05 983.639 1776.67 990.081C1702.31 998.44 1628.95 983.599 1569.15 937.008C1504.25 886.454 1468.06 812.084 1467.42 730.038C1466.88 678.601 1483.94 628.524 1515.76 588.108C1567.29 522.472 1634.49 491.127 1715.85 481.4ZM1671.31 702.946C1711.02 686.881 1750.22 670.725 1791.59 659.864C1797.15 658.405 1802.23 653.855 1799.3 647.711C1790 627.665 1749.23 614.392 1729.46 616.435C1712.76 617.344 1700.23 619.268 1684.85 625.545C1652.64 638.697 1627.13 666.138 1620.06 700.68C1618.63 707.68 1615.75 711.14 1619.1 718.424C1626.52 723.488 1660.82 706.126 1671.31 702.946Z" fill="#02135D"/>
<path d="M976.712 484.3L982.043 484.246C1004.98 484.083 1025.57 488.149 1042.66 505.265C1051.55 514.196 1057.63 525.537 1060.14 537.887C1062.84 550.944 1060.95 565.556 1061.18 578.971C1061.79 622.751 1061.55 666.453 1061.15 710.238C1060.93 734.833 1063.3 764.895 1073.49 787.348C1089.94 823.58 1128.76 840.042 1166.71 839.171C1187.2 838.81 1206.98 831.633 1222.93 818.774C1270.05 780.983 1262.49 733.531 1262.42 679.924C1262.51 647.387 1262.42 614.85 1262.16 582.314C1261.96 554.688 1257.24 526.944 1279.13 505.76C1322.54 463.756 1396.07 485.77 1405.81 546.541C1409.03 566.652 1406.88 585.55 1407.02 605.809C1407.19 636.748 1407.42 667.576 1406.9 698.453C1407.2 766.21 1410.98 801.169 1377.38 866.325C1351.32 916.842 1291.73 959.917 1238.06 975.705C1168.87 996.419 1094.3 988.833 1030.7 954.61C978.717 926.19 936.84 870.227 921.087 813.429C905.592 757.563 911.664 688.19 910.598 630.316C911.112 604.76 909.194 579.288 911.415 553.811C915.204 510.324 939.16 495.178 976.712 484.3Z" fill="#02135D"/>
<path d="M2092.65 256.517C2120.1 256.033 2136.68 255.423 2159.69 273.855C2189.74 297.913 2186.96 330.082 2187.03 364.122L2187.05 431.939L2187 643.439L2187.1 820.951C2187.16 853.011 2187.77 885.076 2186.02 917.086C2184.25 949.593 2155.92 986.055 2122.39 989.162C2118.08 991.007 2113.3 990.878 2108.63 991.086C2077.48 992.47 2045.18 972.447 2035.01 942.491C2028.53 923.4 2029.91 903.889 2029.8 884.091C2029.74 861.557 2029.8 839.198 2029.82 816.756L2029.9 627.567L2029.76 430.816C2029.75 397.427 2029.79 363.929 2029.92 330.547C2030.1 289.062 2055.55 268.726 2092.65 256.517Z" fill="#02135D"/>
<path d="M2884.69 264.518C2892.39 264.667 2901.77 268.491 2908.12 272.885C2916.94 279.012 2922.92 288.445 2924.69 299.042C2929.53 327.879 2897.48 356.885 2878.83 375.8C2857.9 397.024 2826.25 430.491 2795.96 435.668C2789.55 440.756 2769.43 431.877 2764.01 426.055C2754.58 417.392 2752.55 397.417 2759.53 386.704C2783.34 350.12 2812.08 314.608 2841.99 282.773C2854.15 269.831 2866.85 264.021 2884.69 264.518Z" fill="#0040FC"/>
<path d="M2674.69 206.431C2691.21 203.117 2716.98 222.269 2718.83 238.822C2722.93 275.54 2721.19 315.391 2716.58 352.105C2713.83 374.027 2697.45 388.255 2676.57 392.702C2673.6 393.699 2669.85 393.175 2666.86 392.668C2646.23 389.182 2631.62 371.011 2630.91 350.38C2630.53 338.862 2629.91 325.621 2630.38 314.224C2631.35 290.484 2625.99 242.306 2641.39 223.759C2649.77 213.824 2661.74 207.598 2674.69 206.431Z" fill="#0040FC"/>
<path d="M2944.68 465.449C2963.15 462.514 2984.09 463.697 2998.2 477.241C3006.03 484.655 3010.5 494.943 3010.57 505.727C3010.86 531.925 2985.74 546.294 2962.49 548.223C2938.15 550.241 2915.06 550.08 2890.75 550C2871.55 550.154 2854.64 552.095 2838.33 538.967C2824.4 527.753 2821.57 506.139 2833.4 492.397C2845.43 478.97 2864.17 474.815 2881.3 473.024C2902.17 470.841 2923.89 466.961 2944.68 465.449Z" fill="#0040FC"/>
</svg>
